<?xml version="1.0" standalone="no"?><!DOCTYPE svg PUBLIC "-//W3C//DTD SVG 1.1//EN" "http://www.w3.org/Graphics/SVG/1.1/DTD/svg11.dtd"><svg t="1719305610287" class="icon" viewBox="0 0 1024 1024" version="1.1" xmlns="http://www.w3.org/2000/svg" p-id="14175" xmlns:xlink="http://www.w3.org/1999/xlink" width="200" height="200"><path d="M936.2 463.64L565 141.9c-20.72-18-53-3.24-53 24.18v184.68a32 32 0 0 1-32.44 32C121.15 378.64 68.81 709.85 63.3 858c-0.63 16.78 21.77 23 29.94 8.38 112-200.83 308.56-225.59 386.05-227.15a32 32 0 0 1 32.71 32v186.69c0 27.42 32.24 42.14 53 24.18l371.2-321.74a64 64 0 0 0 0-96.72z" fill="#ffffff" p-id="14176"></path></svg>