<?xml version="1.0" standalone="no"?><!DOCTYPE svg PUBLIC "-//W3C//DTD SVG 1.1//EN" "http://www.w3.org/Graphics/SVG/1.1/DTD/svg11.dtd"><svg t="1719305583457" class="icon" viewBox="0 0 1024 1024" version="1.1" xmlns="http://www.w3.org/2000/svg" p-id="10531" xmlns:xlink="http://www.w3.org/1999/xlink" width="200" height="200"><path d="M512.0000066782608 70.5964911304348c-25.992784139130432 0-49.684124939130434 14.350183513043477-60.785209878260865 36.82311123478261l-105.324928 213.89895568695653L103.69668452173914 356.3817416347826c-24.909751652173913 3.519856417391304-45.62275172173913 20.306862747826088-53.61011756521739 42.91516994782609-7.98736584347826 22.743686678260868-2.0306866086956523 47.92419617391304 15.56859436521739 64.98196034782609L243.13714309565222 637.8348599652174 201.9819008 878.2681165913044c-4.196751582608695 24.232856486956518 6.498196034782608 48.60109133913043 27.617333426086955 62.81589537391304 11.642601739130434 7.716608 25.180509495652174 11.642601739130434 38.71841836521739 11.642601739130434 11.371842782608693 0 22.47292772173913-2.7075817739130428 32.490980173913044-7.987366956521739l211.1913739130435-111.28160834782608 211.1913739130435 111.28160834782608c10.018052452173913 5.144405704347827 21.119137391304346 7.98736584347826 32.490980173913044 7.987366956521739 13.673287234782608 0 27.211196104347824-3.9259937391304347 38.71841836521739-11.642601739130434 20.98375791304348-14.214804034782608 31.67870553043478-38.44766052173913 27.617333426086955-62.81589537391304l-41.15524229565218-240.43325662608694 177.48198177391305-173.42060855652176c17.599280973913043-17.05776528695652 23.55596132173913-42.23827478260869 15.56859436521739-64.98196146086956-7.98736584347826-22.743686678260868-28.70036591304348-39.395313530434784-53.61011756521739-42.91516994782609l-242.19318427826084-35.198561947826086-105.324928-213.89895568695653c-10.965705460869565-22.47292772173913-34.65704626086956-36.82311123478261-60.785209878260865-36.82311123478261" fill="#ffffff" p-id="10532"></path></svg>