<?xml version="1.0" standalone="no"?><!DOCTYPE svg PUBLIC "-//W3C//DTD SVG 1.1//EN" "http://www.w3.org/Graphics/SVG/1.1/DTD/svg11.dtd"><svg t="1719212609236" class="icon" viewBox="0 0 1194 1024" version="1.1" xmlns="http://www.w3.org/2000/svg" p-id="32204" xmlns:xlink="http://www.w3.org/1999/xlink" width="233.203125" height="200"><path d="M0 125.148603v773.645908A125.148603 125.148603 0 0 0 125.148603 1023.943114h296.943503a62.574301 62.574301 0 0 0 62.574301-62.574301v-138.061663a150.178323 150.178323 0 0 0-30.376979-90.505195L213.890339 414.526304a52.619299 52.619299 0 0 1 4.721516-68.888617 49.376812 49.376812 0 0 1 67.12516-2.559858l51.766013 44.48464a50.059441 50.059441 0 0 0 63.939559 1.137714L608.677296 222.707627 358.892062 17.122604A75.089162 75.089162 0 0 0 311.164935 0H125.148603A125.148603 125.148603 0 0 0 0 125.148603z" fill="#247FFF" p-id="32205"></path><path d="M395.412699 430.852508l196.255764 166.220099a62.574301 62.574301 0 0 0 80.208877 0.568857l191.761791-157.857896a49.319927 49.319927 0 0 1 66.271874 3.242486 47.670241 47.670241 0 0 1 1.877229 65.304817l-175.094273 197.393478a150.178323 150.178323 0 0 0-37.885895 99.60691V961.368813a62.574301 62.574301 0 0 0 62.574302 62.574301h300.584189A112.633743 112.633743 0 0 0 1194.6003 911.309372V123.157602C1194.6003 55.179157 1139.421143 0 1071.442698 0h-96.876396c-17.065719 0-33.56258 5.802344-46.816955 16.439976A148176.571524 148176.571524 0 0 1 432.900394 409.804789c-10.182545 8.362202-22.697406 15.359147-37.54458 21.047719z" fill="#19BDFF" p-id="32206"></path></svg>