<?xml version="1.0" standalone="no"?><!DOCTYPE svg PUBLIC "-//W3C//DTD SVG 1.1//EN" "http://www.w3.org/Graphics/SVG/1.1/DTD/svg11.dtd"><svg t="1719210703303" class="icon" viewBox="0 0 1024 1024" version="1.1" xmlns="http://www.w3.org/2000/svg" p-id="28913" xmlns:xlink="http://www.w3.org/1999/xlink" width="200" height="200"><path d="M960.2 327.7V251c0-37.6-30.4-68-68-68H132c-37.6 0-68 30.4-68 68v76.7c0 6.6 5.4 12 12 12h872.2c6.6 0 12-5.4 12-12zM948.2 403.3H76c-6.6 0-12 5.4-12 12v390.3c0 37.6 30.4 68 68 68h760.2c37.6 0 68-30.4 68-68V415.3c0-6.6-5.4-12-12-12zM511.9 654l-18.3 103.8c-1 5.7-6 9.9-11.8 9.9h-39.6c-7.5 0-13.1-6.7-11.8-14.1l18.3-103.8c1-5.7 6-9.9 11.8-9.9h39.6c7.5 0.1 13.1 6.8 11.8 14.1z m128.1 0l-18.3 103.8c-1 5.7-6 9.9-11.8 9.9h-39.6c-7.5 0-13.1-6.7-11.8-14.1l18.3-103.8c1-5.7 6-9.9 11.8-9.9h39.6c7.5 0.1 13.1 6.8 11.8 14.1z m192 0l-18.3 103.8c-1 5.7-6 9.9-11.8 9.9H698.4c-7.5 0-13.1-6.7-11.8-14.1l18.3-103.8c1-5.7 6-9.9 11.8-9.9h103.5c7.4 0.1 13.1 6.8 11.8 14.1z" fill="#F98434" p-id="28914"></path></svg>