<?xml version="1.0" standalone="no"?><!DOCTYPE svg PUBLIC "-//W3C//DTD SVG 1.1//EN" "http://www.w3.org/Graphics/SVG/1.1/DTD/svg11.dtd"><svg t="1719213495231" class="icon" viewBox="0 0 1024 1024" version="1.1" xmlns="http://www.w3.org/2000/svg" p-id="42399" xmlns:xlink="http://www.w3.org/1999/xlink" width="200" height="200"><path d="M148.4 407.1c1.9-71.1 30.7-142.2 130.6-142.2 99.9 0 159.8 52 215.2 182.5 12.9-105.9 22.6-202-143.3-260-110.3-38.6-236-3-300.8 94.3-18.1 27.4-33.3 59.6-43.8 96.6-23.1 157.5 144 290.9 326.6 367-113.6-103.5-180.6-211.4-184.5-338.2zM515.4 270.7C562 196 631 137.6 767.1 128.5c-27.5-29.9-136.4-57.6-182.5-51.9-46.1 5.8-105.1 59.3-147.9 103.8 44.9 14.8 70.1 45.7 78.7 90.3z" fill="#5491de" p-id="42400"></path><path d="M1023.6 341.8C1015 186.2 874.3 69.8 726.8 68c119.8 42 200.6 107.4 175.8 236.3-22.3 158-163.3 297.2-377.6 441 21.6 122.2 35 217.3 89.3 210.4 36.7-86.3 98.6-174.4 196-265.1 121.1-98.1 221.4-231.6 213.3-348.8zM396.3 464.7c-3.8 20 2.7 36 19.2 48-22-3.2-42.8-1.1-61.5 9.6 59.6 42.3 101.8 84.5 176.8 67.2 74.9-17.2-13.8-89.1-134.5-124.8z" fill="#5491de" p-id="42401"></path></svg>