<?xml version="1.0" standalone="no"?><!DOCTYPE svg PUBLIC "-//W3C//DTD SVG 1.1//EN" "http://www.w3.org/Graphics/SVG/1.1/DTD/svg11.dtd"><svg t="1719193945280" class="icon" viewBox="0 0 1024 1024" version="1.1" xmlns="http://www.w3.org/2000/svg" p-id="7255" xmlns:xlink="http://www.w3.org/1999/xlink" width="200" height="200"><path d="M224 0c38.88 0 70.4 37.25 70.4 83.2s-19.504 69.942-55.98 98.592c-9.184 7.214-22.286 39.608-0.744 82.214 76.7-71.448 167.492-131.334 240.874-187.04 11.63-8.828 22.82-17.416 33.45-25.766a4187.504 4187.504 0 0 0 32.412 24.112C708.822 196.614 947.2 339.2 947.2 576c0 240.354-194.846 448-435.2 448-240.354 0-435.2-207.646-435.2-448 0-104.824 47.424-190.872 114.134-264.74-19.142-25.212-31.588-45.284-37.334-60.214C82.156 65.388 185.12 0 224 0z m603.2 0c39.764 0 72 32.236 72 72s-15.712 92.92-105.6 132.8c-11.712-37.968-38.4-93.036-38.4-132.8 0-39.764 32.236-72 72-72z" fill="#3581FB" p-id="7256"></path><path d="M230.4 435.2h126.872a25.6 25.6 0 0 1 21.494 11.694L512 652.834l133.234-205.94a25.6 25.6 0 0 1 21.494-11.694H793.6L533.492 837.184c-7.68 11.87-23.528 15.266-35.4 7.586a25.6 25.6 0 0 1-7.584-7.586L230.4 435.2z" fill="#FFFFFF" p-id="7257"></path></svg>