<?xml version="1.0" standalone="no"?><!DOCTYPE svg PUBLIC "-//W3C//DTD SVG 1.1//EN" "http://www.w3.org/Graphics/SVG/1.1/DTD/svg11.dtd"><svg t="1719210667449" class="icon" viewBox="0 0 1024 1024" version="1.1" xmlns="http://www.w3.org/2000/svg" p-id="26935" xmlns:xlink="http://www.w3.org/1999/xlink" width="200" height="200"><path d="M537.739636 266.472727c43.962182 9.821091 86.178909-8.215273 94.324364-40.261818 8.145455-32.046545-20.898909-65.978182-64.837818-75.799273-44.008727-9.821091-86.202182 8.238545-94.324364 40.285091-8.145455 32.069818 20.875636 65.978182 64.837818 75.799273z" fill="#108EE9" p-id="26936"></path><path d="M949.294545 337.640727a488.331636 488.331636 0 0 0-32.628363-72.541091 469.713455 469.713455 0 0 0-145.152-160.069818 554.496 554.496 0 0 0-30.999273-18.688L740.072727 86.109091c-108.334545-58.786909-163.84-45.847273-162.909091-1.768727 0.674909 32.954182 30.72 41.099636 57.344 53.899636 90.554182 43.403636 139.403636 110.149818 114.571637 164.305455-22.807273 49.687273-107.566545 67.234909-195.374546 35.537454-89.832727-32.418909-207.685818-109.661091-223.534545-22.528-13.381818 73.611636 99.211636 76.008727 216.529454 196.421818 50.269091 51.572364 63.208727 141.335273 33.815273 213.457455-63.232 108.916364-244.410182 83.456-326.562909-5.445818-94.370909-102.097455-82.082909-208.500364-77.218909-234.682182 11.450182-52.782545 32.162909-95.883636 48.221091-121.949091 16.290909-28.741818 24.669091-47.802182 24.366545-70.888727-0.465455-37.236364-26.461091-61.719273-62.557091-63.883637-43.054545-2.56-74.938182 24.529455-93.556363 64.558546A485.748364 485.748364 0 0 0 57.250909 602.088727c0.349091 1.978182 0.628364 3.956364 1.024 5.957818 2.094545 10.472727 4.794182 20.712727 7.912727 30.673455l-0.069818-0.046545s4.352 17.058909 14.754909 40.261818c3.351273 8.424727 6.749091 16.872727 10.472728 25.018182a3.723636 3.723636 0 0 0-0.302546-0.302546l0.744727 1.233455c101.562182 219.904 351.581091 328.564364 579.211637 243.758545C912.523636 858.647273 1037.149091 585.076364 949.294545 337.640727z" fill="#108EE9" p-id="26937"></path></svg>