<?xml version="1.0" standalone="no"?><!DOCTYPE svg PUBLIC "-//W3C//DTD SVG 1.1//EN" "http://www.w3.org/Graphics/SVG/1.1/DTD/svg11.dtd"><svg t="1719211740901" class="icon" viewBox="0 0 1692 1024" version="1.1" xmlns="http://www.w3.org/2000/svg" p-id="29966" xmlns:xlink="http://www.w3.org/1999/xlink" width="330.46875" height="200"><path d="M1207.196939 59.137912c0 21.267262 11.379851 40.482419 29.662234 51.11605 18.282383 10.633631 40.482419 10.633631 59.511022 0 18.282383-10.633631 29.662234-30.595008 29.662233-51.11605 0-21.267262-11.379851-40.482419-29.662233-51.11605-18.282383-10.633631-40.482419-10.633631-59.511022 0-18.095828 9.887411-29.662234 29.848788-29.662234 51.11605z m0 0" fill="#DAE9FF" p-id="29967"></path><path d="M829.42321 0c-29.475679 0-60.630352 6.342868-94.396794 18.842048-33.952997 12.49918-95.143013 60.630352-122.566587 134.132993 0 0-48.317726 161.556568 86.188377 287.667699l11.00674 11.566406c72.383312 73.502642 175.734742 113.985061 176.294407 229.276006 4.663873 91.59847-76.48752 181.33139-173.869193 185.435599h-8.208417c-49.623611 0-93.277464-18.842048-109.507742-30.968118-14.364729-10.447076-27.610129-21.826927-39.7362-33.206778-13.805065-19.588267-81.711058-108.201858-15.110949-216.590271 30.035343-44.959738 80.591729-91.411915 132.827109-128.163236-33.393332-30.781563-123.312807-129.84223-93.464019-277.780288-378.519949 304.644197-175.548187 687.45491-12.312626 780.545819 61.749681 41.601749 142.154855 63.242121 225.731463 63.242121 131.894334 0 272.18364-52.60849 363.409-161.556568 128.909455-153.161596 220.507925-503.698306-168.645655-799.014756-52.9816-42.347969-102.97832-63.428676-157.638914-63.428676z m0 0" fill="#5495F6" p-id="29968"></path></svg>