<?xml version="1.0" standalone="no"?><!DOCTYPE svg PUBLIC "-//W3C//DTD SVG 1.1//EN" "http://www.w3.org/Graphics/SVG/1.1/DTD/svg11.dtd"><svg t="1719211789457" class="icon" viewBox="0 0 1024 1024" version="1.1" xmlns="http://www.w3.org/2000/svg" p-id="31191" xmlns:xlink="http://www.w3.org/1999/xlink" width="200" height="200"><path d="M100.69 98.116L491.954 16.958a98.7 98.7 0 0 1 40.092 0l391.264 81.158c35.82 7.43 60.842 39.914 58.884 76.444l-30 559.572a98.7 98.7 0 0 1-51.92 81.7l-341.638 183.164a98.7 98.7 0 0 1-93.272 0L123.726 815.834a98.7 98.7 0 0 1-51.92-81.702l-30-559.572c-1.96-36.53 23.062-69.014 58.884-76.444z" fill="#3880FB" p-id="31192"></path><path d="M758.154 230.4v190.446h-124.062v32.638h158.56v71.42l-87.304-0.002L793.6 742.226h-82.708l-76.8-189.124V742.4H563.2l-0.002-189.298-76.798 189.124h-82.708l88.25-217.324h-87.834v-71.418H563.2v-32.638h-124.06V230.4h319.016z m-354.46 0l-35.448 62.49V742.4h-70.892l-0.002-324.53-35.444 62.492H179.2L320.984 230.4h82.708z m283.568 71.418h-177.232v47.612h177.232v-47.612z" fill="#FFFFFF" p-id="31193"></path></svg>