<?xml version="1.0" standalone="no"?><!DOCTYPE svg PUBLIC "-//W3C//DTD SVG 1.1//EN" "http://www.w3.org/Graphics/SVG/1.1/DTD/svg11.dtd"><svg t="1719210593573" class="icon" viewBox="0 0 1024 1024" version="1.1" xmlns="http://www.w3.org/2000/svg" p-id="24086" xmlns:xlink="http://www.w3.org/1999/xlink" width="200" height="200"><path d="M512 36.571429c262.582857 0 475.428571 212.845714 475.428571 475.428571S774.582857 987.428571 512 987.428571 36.571429 774.582857 36.571429 512 249.417143 36.571429 512 36.571429z m-86.162286 277.485714a10.971429 10.971429 0 0 0-15.488 0l-35.913143 35.766857a10.971429 10.971429 0 0 0 0 15.542857l75.593143 75.154286H376.685714a10.971429 10.971429 0 0 0-10.971428 10.971428v51.2a10.971429 10.971429 0 0 0 10.971428 10.971429H475.428571v36.571429h-98.742857a10.971429 10.971429 0 0 0-10.971428 10.971428v51.2a10.971429 10.971429 0 0 0 10.971428 10.971429H475.428571v93.988571a10.971429 10.971429 0 0 0 10.971429 10.971429h51.2a10.971429 10.971429 0 0 0 10.971429-10.971429v-93.988571h98.742857a10.971429 10.971429 0 0 0 10.971428-10.971429v-51.2a10.971429 10.971429 0 0 0-10.971428-10.971428H548.571429v-36.571429h98.742857a10.971429 10.971429 0 0 0 10.971428-10.971429v-51.2a10.971429 10.971429 0 0 0-10.971428-10.971428h-73.362286l75.593143-75.154286a10.971429 10.971429 0 0 0 0-15.542857l-35.894857-35.766857a10.971429 10.971429 0 0 0-15.488 0L512 399.725714z" fill="#1677FF" p-id="24087"></path></svg>