<?xml version="1.0" standalone="no"?><!DOCTYPE svg PUBLIC "-//W3C//DTD SVG 1.1//EN" "http://www.w3.org/Graphics/SVG/1.1/DTD/svg11.dtd"><svg t="1719216089272" class="icon" viewBox="0 0 1092 1024" version="1.1" xmlns="http://www.w3.org/2000/svg" p-id="5451" xmlns:xlink="http://www.w3.org/1999/xlink" width="213.28125" height="200"><path d="M359.901867 593.134933a22.801067 22.801067 0 0 1 29.013333 0 238.045867 238.045867 0 0 0 157.0816 59.153067c59.1872 0 114.005333-21.6064 157.0816-58.709333 8.055467-7.0656 22.084267-6.485333 30.139733 0.512 64.068267 56.388267 156.603733 76.322133 248.046934 40.789333v269.175467c0 62.395733-52.224 101.137067-114.619734 101.137066H225.962667c-62.395733 0-110.250667-38.741333-110.250667-101.137066v-268.936534c0 1.092267 5.393067 2.628267 9.1136 3.720534 86.6304 28.5696 173.1584 8.055467 235.076267-45.738667z m5.870933 55.773867c-12.970667 0-24.234667 10.24-24.234667 23.176533v274.3296c0 12.970667 11.264 23.1424 24.234667 23.1424 12.970667 0 24.234667-10.205867 24.234667-23.1424V672.085333c0-12.970667-11.264-23.176533-24.234667-23.176533zM851.0464 19.0464c34.9184 0 66.730667 20.3776 82.3296 51.6096l142.062933 289.8944 2.184534 6.485333c3.106133 12.834133 5.256533 25.326933 6.485333 38.2976 3.720533 89.258667-69.358933 182.3744-157.0816 199.0656a194.4576 194.4576 0 0 1-191.522133-73.216 22.528 22.528 0 0 0-35.5328 0 193.877333 193.877333 0 0 1-307.677867 0c-9.1136-11.264-26.897067-11.264-35.498667 0-45.1584 59.1872-123.733333 91.477333-207.633066 68.881067C64.682667 576.9216 8.192 499.985067 8.192 412.330667c0-15.633067 1.536-29.184 5.870933-45.2608 0.580267-1.570133 1.672533-4.3008 2.1504-5.870934L156.023467 70.656A91.2384 91.2384 0 0 1 238.318933 19.0464z" fill="#33B0E9" p-id="5452"></path></svg>