<?xml version="1.0" standalone="no"?><!DOCTYPE svg PUBLIC "-//W3C//DTD SVG 1.1//EN" "http://www.w3.org/Graphics/SVG/1.1/DTD/svg11.dtd"><svg t="1719210471454" class="icon" viewBox="0 0 1026 1024" version="1.1" xmlns="http://www.w3.org/2000/svg" p-id="18280" xmlns:xlink="http://www.w3.org/1999/xlink" width="200.390625" height="200"><path d="M850.186774 20.726253H176.686172c-45.146293 0-82.084168 36.937876-82.084168 82.084168v842.593988c0 25.856513 30.576353 39.400401 49.660922 22.162725L202.542685 915.238477c11.491784-10.260521 28.934669-10.055311 40.221243 0.410421l85.777956 80.032064c10.260521 9.64489 25.651303 10.670942 37.143086 2.667735l130.924248-89.882164c10.055311-6.977154 23.599198-6.977154 33.654509 0l131.33467 90.087375c11.286573 7.797996 26.882565 6.771944 36.937876-2.667736l86.804008-80.032064c11.286573-10.465731 28.729459-10.465731 40.016032-0.20521l57.048497 51.507815c19.084569 17.237675 49.660922 3.693788 49.660921-22.162725V102.810421c0.20521-45.146293-36.732665-82.084168-81.878957-82.084168zM178.533066 223.474148c0-22.983567 18.879359-42.068136 42.068136-42.068136h252.408818c22.983567 0 42.068136 18.879359 42.068136 42.068136 0 22.983567-18.879359 42.068136-42.068136 42.068137h-252.408818c-23.188778-0.20521-42.068136-19.084569-42.068136-42.068137z m418.834469 167.656914c0 22.983567-18.879359 42.068136-42.068136 42.068136H220.395992c-22.983567 0-42.068136-18.879359-42.068136-42.068136 0-22.983567 18.879359-42.068136 42.068136-42.068136h334.903407c23.188778 0.20521 42.068136 18.879359 42.068136 42.068136z m0 0" fill="#FEBA16" p-id="18281"></path></svg>