<?xml version="1.0" standalone="no"?><!DOCTYPE svg PUBLIC "-//W3C//DTD SVG 1.1//EN" "http://www.w3.org/Graphics/SVG/1.1/DTD/svg11.dtd"><svg t="1719210629984" class="icon" viewBox="0 0 1024 1024" version="1.1" xmlns="http://www.w3.org/2000/svg" p-id="25952" xmlns:xlink="http://www.w3.org/1999/xlink" width="200" height="200"><path d="M843.341961 278.310087l0.998 0.864c0.498 0.432 0.994 0.868 1.49 1.304 106.045988 93.075989 161.531981 208.685976 151.385982 350.579959-8.609999 120.439986-66.015992 216.361975-161.399981 289.427966-95.309989 73.007991-205.085976 103.259988-321.409962 103.513988-129.755985-3.544-243.689971-41.505995-339.91996-126.013985-9.255999-8.123999-16.385998-8.339999-26.875997-2.386-25.415997 14.435998-52.719994 26.281997-80.727991 8.543999-25.735997-16.305998-27.853997-42.767995-27.273997-69.499992l0.04-1.744 0.05-1.743999c0.034-1.16 0.07-2.324 0.11-3.484 0.834-24.959997 6.751999-48.957994 16.473998-71.729992 5.655999-13.253998 4.595999-24.905997 0.774-38.299995-27.179997-95.277989-25.317997-190.083978 9.919999-282.985967 18.273998-48.185994 47.533994-89.46399 91.935989-117.913986 22.541997-14.439998 46.699995-20.135998 71.645992-4.6 7.727999 4.809999 15.929998 3.08 24.105997 2.252 125.285985-12.657999 230.323973 60.139993 260.30997 181.573979 15.807998 64.011992 38.863995 124.533985 81.67199 175.713979 39.667995 47.419994 87.61399 80.753991 152.949982 80.271991 55.465994-0.41 103.519988-41.201995 112.375987-94.993989 9.263999-56.293993-22.237997-107.451987-76.941991-126.327985-17.149998-5.919999-34.887996-8.299999-52.649994-10.525999l-4.843999-0.604c-12.109999-1.516-24.207997-3.1-36.113996-5.825999-16.395998-3.758-31.567996-9.653999-45.327995-18.993998-10.329999-7.011999-19.139998-15.601998-15.781998-29.705996 3.27-13.727998 12.809998-21.295998 26.521997-24.027998 40.871995-8.143999 74.447991-27.999997 99.857988-61.215992 17.713998-23.163997 28.813997-48.927994 32.183997-77.911991l0.152-1.298 0.156-1.296c0.08-0.646 0.16-1.292 0.245999-1.936l0.176-1.286c1.688-11.959999 4.969999-23.007997 18.811998-28.107996 14.695998-5.411999 25.095997 1.95 34.923996 10.413998zM280.156027 416.240071c-17.931998-0.288-31.401996 10.351999-32.103996 25.345997-0.886 18.951998 18.331998 36.599996 40.465995 37.155996 18.889998 0.48 31.673996-10.531999 31.971996-27.521997 0.308-18.011998-18.855998-34.633996-40.333995-34.979996z" fill="#FD3C00" p-id="25953"></path><path d="M520.603999 326.806082c-93.695989-0.172-164.659981-70.279992-164.575981-162.601981C356.108018 70.216112 426.94601-0.10988 521.419999 0.00012c89.49399 0.106 162.853981 74.191991 162.575981 164.183981-0.282 90.811989-72.599991 162.787981-163.391981 162.619981" fill="#FB9D00" p-id="25954"></path></svg>